<svg xmlns="http://www.w3.org/2000/svg" viewBox="0 0 566.93 162.75"><defs><style>.cls-1{fill:#005f4b;}.cls-1,.cls-2{fill-rule:evenodd;}.cls-2,.cls-6{fill:#fff;}.cls-3{fill:#b96a13;}.cls-4{fill:#eca95e;}.cls-5{fill:#86716b;}</style></defs><g id="Layer_2" data-name="Layer 2"><g id="Ñëîé_1" data-name="Ñëîé 1"><path class="cls-1" d="M363.86,133v8a21.81,21.81,0,0,1-21.76,21.77h-3a21.62,21.62,0,0,1-8.09-1.56,21.83,21.83,0,0,1-8.13,1.56h-3A21.81,21.81,0,0,1,298.22,141v-7.62H178.54v6.73a21.78,21.78,0,0,1-21.72,21.77h-3a21.19,21.19,0,0,1-8.08-1.57,21.73,21.73,0,0,1-8.14,1.57h-3A21.78,21.78,0,0,1,113,140.09v-6.73H28.5A22.22,22.22,0,0,1,6.27,111.17V57.51A22.42,22.42,0,0,1,11.1,43.66c6.31-7.92,16.34-15.16,25.49-19.14,22.61-9.87,44.13,1,63.31,15.84,3.43,2.62,7.88.38,9.23,4.19a21.64,21.64,0,0,1,34.69-15.2,21.66,21.66,0,0,1,26.08-.17,21.71,21.71,0,0,1,25.71-.13A21.63,21.63,0,0,1,221,29a21.6,21.6,0,0,1,25.24,0,21.59,21.59,0,0,1,25.11-.09,21.75,21.75,0,0,1,23.29-1.14,21.34,21.34,0,0,1,10.72-2.84,26.76,26.76,0,0,1,3.6.25A22.18,22.18,0,0,1,344.43,9.23,22.16,22.16,0,0,1,380,26.93V41.59H507.47a21.61,21.61,0,0,1,29.35-14.32,21.63,21.63,0,0,1,30.11,19.91V97a17.34,17.34,0,0,1-15.63,17.24l-8.64,14.23a8.53,8.53,0,0,1-14.48,0l-3.81-6.31-3.86,6.31a8.53,8.53,0,0,1-14.48,0l-3.85-6.31-3.86,6.31a8.49,8.49,0,0,1-14.44,0l-4.44-7.29L475,128.45a8.49,8.49,0,0,1-14.44,0L457.2,123l-3.3,5.46a8.49,8.49,0,0,1-14.44,0l-3.86-6.31-3.85,6.31a8.53,8.53,0,0,1-14.48,0l-3.86-6.31-3.81,6.31a8.53,8.53,0,0,1-14.48,0l-3.86-6.31-3.85,6.31a8.49,8.49,0,0,1-14.44,0l-.26-.38a17.31,17.31,0,0,1-8.85,4.91Z"/><path class="cls-2" d="M357.55,128.24v8A21.82,21.82,0,0,1,335.79,158h-3a21.65,21.65,0,0,1-8.09-1.61A21.7,21.7,0,0,1,316.6,158h-2.92a21.83,21.83,0,0,1-21.77-21.77v-7.62H172.28v6.73a21.82,21.82,0,0,1-21.77,21.77h-3a21.42,21.42,0,0,1-8.08-1.57,21.67,21.67,0,0,1-8.13,1.57H128.4a21.82,21.82,0,0,1-21.77-21.77v-6.73H22.19A22.2,22.2,0,0,1,0,106.38V52.73A22.15,22.15,0,0,1,4.83,38.92C11.1,31,21.13,23.76,30.28,19.78,52.89,9.87,76.36,15,95.54,29.85a22,22,0,0,1,7.33,10,21.6,21.6,0,0,1,34.64-15.25,21.62,21.62,0,0,1,26.08-.13,21.69,21.69,0,0,1,13-4.31,21.33,21.33,0,0,1,12.75,4.15,21.33,21.33,0,0,1,12.75-4.15,21.68,21.68,0,0,1,12.62,4.06,21.64,21.64,0,0,1,25.24,0,21.68,21.68,0,0,1,25.15-.08A21.57,21.57,0,0,1,288.31,23,21.38,21.38,0,0,1,299,20.12a20.5,20.5,0,0,1,3.6.29A22.18,22.18,0,0,1,338.12,4.49,21.91,21.91,0,0,1,351.5,0a22.18,22.18,0,0,1,22.19,22.15V36.8H501.16a21.6,21.6,0,0,1,20.88-16,21,21,0,0,1,8.47,1.74A21.27,21.27,0,0,1,539,20.79a21.59,21.59,0,0,1,21.6,21.6V92.24A17.37,17.37,0,0,1,545,109.48l-8.64,14.18a8.44,8.44,0,0,1-14.44,0l-3.85-6.31-3.86,6.31a8.47,8.47,0,0,1-14.48,0l-3.85-6.31-3.81,6.31a8.48,8.48,0,0,1-14.49,0l-4.45-7.28-4.4,7.28a8.47,8.47,0,0,1-14.48,0l-3.31-5.46-3.34,5.46a8.44,8.44,0,0,1-14.44,0l-3.86-6.31-3.85,6.31a8.47,8.47,0,0,1-14.48,0l-3.82-6.31-3.85,6.31a8.47,8.47,0,0,1-14.48,0L385,117.35l-3.85,6.31a8.44,8.44,0,0,1-14.44,0l-.21-.38a17.38,17.38,0,0,1-8.9,5Z"/><rect class="cls-3" x="115.1" y="89.87" width="29.52" height="58.78" rx="13.3"/><path class="cls-4" d="M163.81,135.35a13.35,13.35,0,0,1-13.3,13.3h-3a13.34,13.34,0,0,1-13.29-13.3V103.17a13.34,13.34,0,0,1,13.29-13.3h3a13.35,13.35,0,0,1,13.3,13.3Z"/><path class="cls-3" d="M329.9,136.24a13.35,13.35,0,0,1-13.3,13.3h-2.92a13.35,13.35,0,0,1-13.3-13.3V104.05a13.33,13.33,0,0,1,13.3-13.3h2.92a13.33,13.33,0,0,1,13.3,13.3Z"/><polygon class="cls-5" points="373.9 119.26 362.81 101.09 373.9 82.92 384.95 101.09 373.9 119.26"/><polygon class="cls-5" points="396.05 119.26 384.95 101.09 396.05 82.92 407.14 101.09 396.05 119.26"/><polygon class="cls-5" points="418.2 119.26 407.14 101.09 418.2 82.92 429.29 101.09 418.2 119.26"/><polygon class="cls-5" points="440.35 119.26 429.29 101.09 440.35 82.92 451.44 101.09 440.35 119.26"/><polygon class="cls-5" points="461.48 119.26 450.38 101.09 461.48 82.92 472.53 101.09 461.48 119.26"/><polygon class="cls-5" points="484.81 119.26 473.72 101.09 484.81 82.92 495.87 101.09 484.81 119.26"/><polygon class="cls-5" points="506.96 119.26 495.87 101.09 506.96 82.92 518.06 101.09 506.96 119.26"/><polygon class="cls-5" points="529.11 119.26 518.06 101.09 529.11 82.92 540.21 101.09 529.11 119.26"/><path class="cls-3" d="M124.38,28.58a13.12,13.12,0,0,0-13.13,13.13V60.64h26.26V41.71a13.14,13.14,0,0,0-13.13-13.13Z"/><path class="cls-3" d="M150.64,28.58a13.14,13.14,0,0,0-13.13,13.13V60.64h26.3V41.71a13.15,13.15,0,0,0-13.17-13.13Z"/><path class="cls-3" d="M176.55,28.58a13.14,13.14,0,0,0-13.12,13.13V60.64h26.29V41.71a13.15,13.15,0,0,0-13.17-13.13Z"/><path class="cls-3" d="M202.05,28.58a13.15,13.15,0,0,0-13.17,13.13V60.64h26.3V41.71a13.14,13.14,0,0,0-13.13-13.13Z"/><path class="cls-3" d="M227.29,28.58a13.14,13.14,0,0,0-13.13,13.13V60.64h26.26V41.71a13.14,13.14,0,0,0-13.13-13.13Z"/><path class="cls-3" d="M252.53,28.58A13.14,13.14,0,0,0,239.4,41.71V60.64h26.26V41.71a13.12,13.12,0,0,0-13.13-13.13Z"/><path class="cls-3" d="M277.56,28.58a13.14,13.14,0,0,0-13.13,13.13V60.64h26.25V41.71a13.11,13.11,0,0,0-13.12-13.13Z"/><path class="cls-3" d="M299,28.58A13.14,13.14,0,0,0,285.9,41.71V60.64h26.3V41.71A13.15,13.15,0,0,0,299,28.58Z"/><path class="cls-4" d="M324.73,8.47A13.71,13.71,0,0,0,311,22.15V50.48h27.45V22.15A13.72,13.72,0,0,0,324.73,8.47Z"/><path class="cls-6" d="M334,34.9V22.15a9.28,9.28,0,1,0-18.55,0V34.9a17.9,17.9,0,0,1,18.55,0Z"/><path d="M334,46.07V34.9a17.9,17.9,0,0,0-18.55,0V46.07Z"/><path class="cls-4" d="M351.5,8.47a13.71,13.71,0,0,0-13.72,13.68V50.48h27.44V22.15A13.71,13.71,0,0,0,351.5,8.47Z"/><path class="cls-6" d="M360.77,34.9V22.15a9.28,9.28,0,1,0-18.55,0V34.9a17.9,17.9,0,0,1,18.55,0Z"/><path d="M360.77,46.07V34.9a17.9,17.9,0,0,0-18.55,0V46.07Z"/><path class="cls-4" d="M362.81,111.25a8.89,8.89,0,0,1-8.86,8.9H120.1a8.88,8.88,0,0,1-8.85-8.9V54.12a8.87,8.87,0,0,1,8.85-8.85H354a8.88,8.88,0,0,1,8.86,8.85Z"/><path class="cls-4" d="M552.15,92.24a8.87,8.87,0,0,1-8.85,8.85H309.45a8.92,8.92,0,0,1-8.9-8.85V54.12a8.92,8.92,0,0,1,8.9-8.85H543.3a8.87,8.87,0,0,1,8.85,8.85Z"/><path class="cls-4" d="M151,120.15H22.19A13.76,13.76,0,0,1,8.47,106.38V52.73a13.77,13.77,0,0,1,3-8.56A62.74,62.74,0,0,1,33.67,27.53c18.55-8.09,38.66-4.92,56.7,9A13.72,13.72,0,1,1,73.6,58.27C63.44,50.44,54,48.62,44.68,52.68a35.94,35.94,0,0,0-8.77,5.63V92.66H151a13.75,13.75,0,0,1,0,27.49Z"/><path class="cls-4" d="M539,29.26a13.15,13.15,0,0,0-13.17,13.13V61.28h26.3V42.39A13.14,13.14,0,0,0,539,29.26Z"/><path class="cls-4" d="M522,29.26a13.11,13.11,0,0,0-13.13,13.13V61.28h26.26V42.39A13.14,13.14,0,0,0,522,29.26Z"/><path d="M526,40.53a4,4,0,1,1-4-4,4,4,0,0,1,4,4Z"/><path d="M543.89,40.53a4,4,0,1,1-4-4,4,4,0,0,1,4,4Z"/><path class="cls-4" d="M349.08,136.24a13.35,13.35,0,0,1-13.29,13.3h-3a13.38,13.38,0,0,1-13.3-13.3V104.05a13.36,13.36,0,0,1,13.3-13.3h3a13.32,13.32,0,0,1,13.29,13.3Z"/></g></g></svg>